<?xml version="1.0" encoding="UTF-8" standalone="no"?><svg xmlns="http://www.w3.org/2000/svg" fill="#7ed957" height="32" viewBox="0 0 32 32" width="32"><g><g><g><path d="M23,12H5c-0.553,0-1,0.447-1,1v6c0,0.553,0.447,1,1,1h18c0.553,0,1-0.447,1-1v-6C24,12.447,23.553,12,23,12z M30,11h-2 c0-1.654-1.346-3-3-3H3c-1.654,0-3,1.346-3,3v10c0,1.654,1.346,3,3,3h22c1.654,0,3-1.346,3-3h2c1.104,0,2-0.896,2-2v-6 C32,11.897,31.104,11,30,11z M26,21c0,0.552-0.448,1-1,1H3c-0.552,0-1-0.448-1-1V11c0-0.552,0.448-1,1-1h22c0.552,0,1,0.448,1,1 V21z M30,19h-2v-6h2V19z"/></g></g></g></svg>